# xmcd CD database file
#
# Track frame offsets:
#	150
#	38324
#	60793
#	116821
#	157015
#	182531
#	208736
#
# Disc length: 3298 seconds
#
# Revision: 0
# Processed by: cddbd v1.5.2PL0 Copyright (c) Steve Scherf et al.
# Submitted via: CDex 1.70beta2
#
DISCID=510ce007
DTITLE=Rob Reddy - Seeing By The Light Of My Own Candle
DYEAR=2001
DGENRE=Jazz
TTITLE0=Street Angel House Devil
TTITLE1=Victim
TTITLE2=My On Candle
TTITLE3=Child
TTITLE4=Rjoc
TTITLE5=See The Elephant
TTITLE6=Prayer III
EXTD=YEAR: 2001
EXTT0=
EXTT1=
EXTT2=
EXTT3=
EXTT4=
EXTT5=
EXTT6=
PLAYORDER=
